<svg width="320" height="75" viewBox="0 0 320 75" fill="none" xmlns="http://www.w3.org/2000/svg">
<path d="M5.0014 16.2825V58H20.4175C28.1843 58 33.3623 53.1751 33.3623 46.4674C33.3623 41.5248 30.3026 37.7002 25.8896 36.5234C29.4788 35.2289 32.0678 31.9339 32.0678 27.5209C32.0678 20.9897 27.3606 16.2825 19.3583 16.2825H5.0014ZM12.0034 33.9345V22.2841H18.2404C22.5357 22.2841 25.007 24.5789 25.007 28.1093C25.007 31.5809 22.5357 33.9345 18.4169 33.9345H12.0034ZM12.0034 51.9983V39.8773H19.4172C23.7713 39.8773 26.1838 42.4074 26.1838 45.9966C26.1838 49.7036 23.4183 51.9983 19.1818 51.9983H12.0034ZM53.0327 52.7632C48.8551 52.7632 45.0305 49.5859 45.0305 43.6431C45.0305 37.7002 48.8551 34.6405 53.0327 34.6405C57.2692 34.6405 61.035 37.7002 61.035 43.6431C61.035 49.6447 57.2692 52.7632 53.0327 52.7632ZM53.0327 28.4623C44.5009 28.4623 38.2051 34.8759 38.2051 43.6431C38.2051 52.469 44.5009 58.8826 53.0327 58.8826C61.6234 58.8826 67.9192 52.469 67.9192 43.6431C67.9192 34.8759 61.6234 28.4623 53.0327 28.4623ZM87.107 52.7632C82.9294 52.7632 79.1048 49.5859 79.1048 43.6431C79.1048 37.7002 82.9294 34.6405 87.107 34.6405C91.3435 34.6405 95.1093 37.7002 95.1093 43.6431C95.1093 49.6447 91.3435 52.7632 87.107 52.7632ZM87.107 28.4623C78.5752 28.4623 72.2794 34.8759 72.2794 43.6431C72.2794 52.469 78.5752 58.8826 87.107 58.8826C95.6977 58.8826 101.994 52.469 101.994 43.6431C101.994 34.8759 95.6977 28.4623 87.107 28.4623ZM135.421 29.3449H126.359L115.356 40.9364V15.3999H108.59V58H115.356V49.9978L118.887 46.2908L127.301 58H135.656L123.653 41.466L135.421 29.3449ZM162.84 58V41.1718H179.785V34.6405H162.84V22.9314H181.727V16.2825H155.779V58H162.84ZM194.537 58V29.3449H187.771V58H194.537ZM186.712 19.2833C186.712 21.7546 188.712 23.6963 191.125 23.6963C193.596 23.6963 195.596 21.7546 195.596 19.2833C195.596 16.812 193.596 14.8115 191.125 14.8115C188.712 14.8115 186.712 16.812 186.712 19.2833ZM210.168 41.466C210.168 37.7002 212.227 34.6994 216.111 34.6994C220.406 34.6994 221.995 37.5237 221.995 41.0541V58H228.82V39.8773C228.82 33.5814 225.466 28.5212 218.464 28.5212C215.287 28.5212 211.874 29.8745 209.992 33.1695V29.3449H203.343V58H210.168V41.466ZM241.719 43.5842C241.719 38.1121 245.014 34.6405 249.486 34.6405C253.958 34.6405 257.018 38.0533 257.018 43.5254C257.018 48.9975 253.899 52.7044 249.427 52.7044C244.779 52.7044 241.719 49.0563 241.719 43.5842ZM263.608 15.3999H256.959V32.6988C256.076 30.8748 253.546 28.58 248.545 28.58C240.483 28.58 234.894 35.3466 234.894 43.5842C234.894 52.2337 240.425 58.7061 248.662 58.7061C252.722 58.7061 255.723 56.7055 257.076 54.2931C257.076 55.4699 257.253 57.3528 257.371 58H263.902C263.843 57.5293 263.608 55.3522 263.608 52.7632V15.3999ZM318.485 29.1684C318.191 29.1096 317.485 28.9919 316.661 28.9919C312.895 28.9919 309.718 30.8159 308.365 33.9345V29.3449H301.716V58H308.541V44.3491C308.541 38.9947 310.954 35.935 316.249 35.935C316.955 35.935 317.72 35.9939 318.485 36.1115V29.1684Z" fill="white"/>
<path d="M275.401 52H296.154V32.6154C296.154 31.8809 295.862 31.1766 295.343 30.6572C294.823 30.1379 294.119 29.8462 293.385 29.8462H275.385C273.715 29.8462 271.231 30.9525 271.231 34V53.3846C271.231 56.4322 273.715 57.5385 275.385 57.5385H296.154V54.7692H275.401C274.761 54.7526 274 54.4992 274 53.3846C274 52.27 274.761 52.0166 275.401 52ZM278.154 35.3846H290.615V38.1539H278.154V35.3846Z" fill="#29B2DD"/>
</svg>
